<svg xmlns="http://www.w3.org/2000/svg" viewBox="0 0 200 200">
  <!-- Background circle -->
  <circle cx="100" cy="100" r="90" fill="#007bff" />
  
  <!-- Movie ticket shape -->
  <rect x="50" y="70" width="100" height="60" rx="10" ry="10" fill="white" />
  
  <!-- Ticket perforations -->
  <line x1="60" y1="70" x2="60" y2="130" stroke="#007bff" stroke-width="2" stroke-dasharray="5,5" />
  <line x1="140" y1="70" x2="140" y2="130" stroke="#007bff" stroke-width="2" stroke-dasharray="5,5" />
  
  <!-- CDC text -->
  <text x="100" y="110" font-family="Arial" font-size="24" font-weight="bold" fill="#007bff" text-anchor="middle">CDC</text>
  
  <!-- Film strip on top -->
  <rect x="70" y="55" width="60" height="15" fill="#333333" />
  <rect x="75" y="55" width="5" height="15" fill="white" />
  <rect x="85" y="55" width="5" height="15" fill="white" />
  <rect x="95" y="55" width="5" height="15" fill="white" />
  <rect x="105" y="55" width="5" height="15" fill="white" />
  <rect x="115" y="55" width="5" height="15" fill="white" />
  <rect x="125" y="55" width="5" height="15" fill="white" />
  
  <!-- Film strip on bottom -->
  <rect x="70" y="130" width="60" height="15" fill="#333333" />
  <rect x="75" y="130" width="5" height="15" fill="white" />
  <rect x="85" y="130" width="5" height="15" fill="white" />
  <rect x="95" y="130" width="5" height="15" fill="white" />
  <rect x="105" y="130" width="5" height="15" fill="white" />
  <rect x="115" y="130" width="5" height="15" fill="white" />
  <rect x="125" y="130" width="5" height="15" fill="white" />
</svg>
